<svg  t="1627977428654" class="icon" viewBox="0 0 1024 1024" version="1.1" xmlns="http://www.w3.org/2000/svg" p-id="1838" xmlns:xlink="http://www.w3.org/1999/xlink" width="16" height="16"><defs><style type="text/css"></style></defs><path d="M821.12 807.04h-606.72v-608h606.72v608z m-574.72-32h542.72v-544h-542.72v544z" fill="#9d2933" p-id="1839"></path><path d="M701.44 518.4h-368c-8.96 0-16-7.04-16-16s7.04-16 16-16h368c8.96 0 16 7.04 16 16S710.4 518.4 701.44 518.4z" fill="#9d2933" p-id="1840"></path><path d="M517.76 695.68c-8.96 0-16-7.04-16-16v-353.92c0-8.96 7.04-16 16-16s16 7.04 16 16v353.92c0 8.32-7.04 16-16 16z" fill="#9d2933" p-id="1841"></path></svg>